<?xml version="1.0" standalone="no"?>
<!DOCTYPE svg PUBLIC "-//W3C//DTD SVG 20010904//EN"
 "http://www.w3.org/TR/2001/REC-SVG-20010904/DTD/svg10.dtd">
<svg version="1.0" xmlns="http://www.w3.org/2000/svg"
 width="1024.000000pt" height="1024.000000pt" viewBox="0 0 1024.000000 1024.000000"
 preserveAspectRatio="xMidYMid meet">
<metadata>
Created by potrace 1.14, written by Peter Selinger 2001-2017
</metadata>
<g transform="translate(0.000000,1024.000000) scale(0.100000,-0.100000)"
fill="#000000" stroke="none">
<path d="M5025 10128 c-202 -24 -383 -110 -526 -250 -73 -71 -87 -89 -135
-163 -61 -96 -114 -240 -129 -350 -8 -53 -8 -242 -1 -253 5 -8 18 -86 20 -115
1 -12 -16 -28 -49 -46 -27 -16 -78 -45 -112 -65 -134 -77 -189 -109 -223 -128
-90 -52 -465 -268 -750 -433 -173 -100 -328 -190 -345 -199 -16 -9 -46 -26
-65 -37 -225 -132 -499 -289 -507 -289 -6 0 -18 10 -29 21 -32 36 -127 106
-195 143 -130 71 -274 107 -431 107 -387 -1 -717 -242 -844 -615 -33 -97 -39
-143 -38 -296 2 -150 24 -250 86 -377 101 -210 316 -392 539 -457 l54 -16 -1
-1183 c0 -650 -3 -1187 -7 -1194 -4 -6 -27 -16 -53 -22 -104 -27 -281 -135
-368 -227 -96 -101 -177 -236 -212 -355 -34 -115 -42 -169 -39 -291 8 -374
243 -698 595 -820 215 -75 472 -61 675 35 84 41 182 106 230 156 17 17 33 31
37 31 6 0 255 -142 736 -421 122 -71 241 -140 263 -152 22 -12 48 -26 57 -32
28 -17 135 -79 163 -95 27 -15 430 -248 490 -283 17 -10 101 -58 187 -108 86
-50 158 -92 160 -93 1 -2 -2 -24 -8 -50 -20 -92 -29 -270 -16 -331 58 -270
157 -440 339 -578 132 -101 238 -146 422 -182 39 -7 189 -7 240 0 372 53 675
328 754 685 18 84 21 111 22 198 0 98 -5 141 -26 226 -9 32 -14 60 -13 61 2 2
50 29 108 62 58 33 251 145 430 248 179 103 413 238 520 300 107 62 265 153
350 202 406 235 630 363 635 363 4 0 25 -18 48 -41 114 -112 310 -215 447
-235 19 -3 49 -7 65 -11 69 -14 221 -3 320 22 327 83 565 317 657 643 17 60
22 106 22 207 1 146 -5 187 -40 295 -90 271 -314 491 -584 574 l-55 17 0 1182
c1 650 4 1188 9 1195 4 6 16 12 26 12 10 0 55 16 101 35 241 104 422 299 502
542 39 117 42 142 41 298 -1 121 -5 152 -28 228 -101 336 -366 575 -708 637
-110 20 -290 13 -370 -16 -21 -7 -40 -13 -43 -14 -33 -4 -66 -14 -71 -21 -3
-5 -12 -9 -19 -9 -29 0 -187 -102 -250 -162 -22 -21 -44 -38 -49 -38 -5 0
-129 69 -275 154 -146 85 -369 214 -496 286 -126 73 -243 141 -260 151 -16 10
-46 26 -65 37 -34 19 -460 264 -490 282 -8 5 -117 68 -242 140 -126 72 -228
135 -228 138 0 4 5 25 10 47 17 77 21 108 21 199 1 84 -1 106 -17 191 -51 275
-281 546 -551 647 -87 32 -192 55 -267 57 -39 1 -72 3 -75 5 -3 1 -37 -1 -76
-6z m-565 -1610 c-23 -40 -50 -86 -60 -103 -9 -16 -77 -133 -150 -260 -73
-126 -144 -250 -158 -275 -13 -25 -28 -49 -32 -55 -4 -5 -17 -26 -27 -45 -11
-19 -139 -242 -285 -495 -146 -253 -275 -476 -286 -495 -23 -42 -183 -318
-387 -670 -81 -140 -156 -269 -166 -287 -10 -17 -69 -120 -132 -230 -63 -109
-123 -213 -133 -230 -11 -18 -69 -120 -130 -225 -61 -106 -171 -296 -244 -423
-73 -126 -164 -284 -202 -350 -39 -66 -113 -195 -166 -287 -71 -125 -100 -166
-114 -165 -17 1 -18 45 -18 1193 l0 1192 48 17 c78 29 189 82 234 113 241 167
389 438 391 717 1 106 -6 178 -22 234 -6 19 -10 35 -8 37 3 2 513 296 557 321
19 11 80 46 135 78 240 139 884 511 960 555 192 109 374 215 390 226 16 12 21
12 34 0 12 -12 8 -24 -29 -88z m1820 -201 c234 -134 466 -268 515 -297 50 -29
106 -61 125 -72 60 -34 496 -286 683 -395 98 -56 181 -103 184 -103 4 0 14 -7
23 -15 15 -14 15 -21 0 -97 -16 -81 -19 -227 -6 -298 62 -337 286 -603 596
-705 l65 -22 3 -1188 c1 -767 -1 -1192 -8 -1199 -9 -9 -50 18 -50 34 0 4 -20
41 -43 81 -24 41 -67 113 -95 162 -29 48 -52 89 -52 92 0 3 -16 29 -35 60 -20
30 -39 63 -42 73 -4 9 -21 40 -38 67 -18 28 -45 75 -62 105 -25 46 -200 349
-271 470 -29 48 -95 164 -133 230 -17 30 -73 127 -124 215 -51 88 -102 176
-113 196 -11 20 -79 137 -150 260 -71 123 -204 352 -294 509 -557 966 -668
1157 -728 1260 -37 63 -77 133 -89 155 -12 22 -31 56 -42 75 -28 46 -168 287
-189 325 -9 17 -52 90 -94 163 -61 105 -75 136 -66 147 10 12 19 9 58 -14 26
-16 238 -139 472 -274z m-1353 49 c10 -2 36 -7 58 -11 88 -16 270 -6 361 21
17 5 27 -4 53 -45 17 -28 31 -54 31 -56 0 -3 11 -23 25 -45 13 -21 76 -128
139 -237 138 -240 216 -375 558 -968 146 -253 275 -476 285 -495 11 -19 34
-58 50 -86 17 -27 41 -70 55 -95 14 -24 81 -141 150 -259 166 -287 351 -606
376 -651 11 -20 39 -67 61 -104 23 -37 41 -69 41 -72 0 -2 23 -43 51 -91 29
-48 62 -106 75 -129 13 -23 54 -93 91 -155 36 -62 75 -129 85 -148 10 -19 23
-42 28 -50 6 -8 40 -67 76 -130 36 -63 109 -189 161 -280 53 -91 106 -183 118
-205 13 -22 66 -114 118 -203 l95 -164 -35 -36 c-82 -86 -153 -208 -201 -342
l-20 -55 -2695 -3 -2695 -2 -6 32 c-17 92 -120 274 -205 366 l-40 44 18 26
c16 23 86 144 159 272 10 19 51 89 89 155 39 66 81 140 95 165 23 40 80 139
263 454 32 55 67 116 79 137 17 32 93 163 156 270 8 14 46 80 83 145 38 65 78
135 89 154 11 19 139 240 283 490 145 250 272 471 284 490 11 19 28 49 37 65
9 17 66 116 127 220 61 105 118 205 128 222 10 18 69 119 130 225 61 106 122
211 135 233 177 311 335 582 343 592 6 7 11 15 11 18 0 3 24 47 54 98 29 51
72 125 95 165 34 58 46 72 61 67 10 -3 27 -7 37 -9z m2899 -5548 c3 -16 4 -31
2 -32 -2 -3 -291 -170 -438 -254 -102 -58 -935 -539 -990 -572 -240 -141 -595
-343 -609 -346 -9 -3 -35 14 -61 39 -206 200 -541 287 -825 216 -143 -36 -286
-114 -395 -215 l-35 -32 -155 90 c-85 49 -173 100 -195 112 -22 13 -56 33 -75
45 -19 11 -42 24 -50 28 -8 4 -59 33 -113 65 -53 32 -100 58 -103 58 -3 0 -18
8 -32 19 -15 10 -52 32 -82 49 -30 16 -165 94 -300 172 -135 78 -265 153 -290
167 -74 43 -84 48 -120 71 -19 11 -54 31 -77 44 -23 13 -138 79 -256 147 -166
96 -213 128 -210 141 4 16 175 17 2703 17 l2699 0 7 -29z"/>
</g>
</svg>
